<svg width="1000" height="1000" viewBox="0 0 1000 1000" xmlns="http://www.w3.org/2000/svg"><defs/><path fill="none" visibility="hidden" transform="matrix(0.4009504188271768 0 0 0.4009504188271768 24.021888205030216 -12.620999525448173)" d="M 407.79872851977 1206.8146877385 L 524.09872851977 1268.3146877385 L 524.09872851977 1414.8146877385 L 644.29872851977 1347.9146877385 L 644.29872851977 1209.1146877385 L 524.09872851977 1139.7146877385 Z"/><path fill="#777777" transform="matrix(0.4009504188271768 0 0 0.4009504188271768 24.021888205030216 -12.620999525448173)" d="M 524.09872851977 1036.2146877385 L 314.19872851977 1157.3146877385 L 367.29872851977 1185.4146877385 L 407.79872851977 1206.8146877385 L 524.09872851977 1139.7146877385 L 644.29872851977 1209.1146877385 L 676.39872851977 1190.6146877385 L 733.99872851977 1157.3146877385 Z"/><g opacity="0.35" transform="matrix(0.4009504188271768 0 0 0.4009504188271768 24.021888205030216 -12.620999525448173)"><path fill="#777777" d="M 644.29872851977 1209.1146877385 L 524.09872851977 1139.7146877385 L 407.79872851977 1206.8146877385 L 524.09872851977 1268.3146877385 L 524.09872851977 1268.3146877385 L 524.09872851977 1414.8146877385 L 644.29872851977 1347.9146877385 L 644.29872851977 1209.1146877385 Z"/></g><g opacity="0.8" transform="matrix(0.4009504188271768 0 0 0.4009504188271768 24.021888205030216 -12.620999525448173)"><path fill="#ffffff" d="M 407.79872851977 1206.8146877385 L 367.29872851977 1185.4146877385 L 314.19872851977 1157.3146877385 L 314.19872851977 1260.9146877385 L 314.19872851977 1399.7146877385 L 314.49872851977 1399.8146877385 L 524.09872851977 1268.3146877385 Z"/></g><g opacity="0.8" transform="matrix(0.4009504188271768 0 0 0.4009504188271768 24.021888205030216 -12.620999525448173)"><path fill="#ffffff" d="M 676.39872851977 1190.6146877385 L 644.29872851977 1209.1146877385 L 644.29872851977 1347.9146877385 L 524.09872851977 1414.8146877385 L 524.09872851977 1520.8146877385 L 733.99872851977 1399.7146877385 L 733.99872851977 1260.9146877385 L 733.99872851977 1157.3146877385 Z"/></g><path fill="#ffffff" transform="matrix(0.4009504188271768 0 0 0.4009504188271768 24.021888205030216 -12.620999525448173)" d="M 524.09872851977 1268.3146877385 L 314.49872851977 1399.8146877385 L 524.09872851977 1520.8146877385 L 524.09872851977 1414.8146877385 Z"/><path id="text" fill="#ffffff" transform="matrix(0.6860895937981986 0 0 0.6860895937981986 226.22438296189964 39.12653705006452)" d="M 166.23116119851 578.20347413855 L 180.34316119851 578.20347413855 L 180.34316119851 610.65147413855 L 196.18316119851 610.65147413855 L 196.18316119851 578.20347413855 L 210.39116119851 578.20347413855 L 210.39116119851 655.96347413855 L 196.18316119851 655.96347413855 L 196.18316119851 620.82747413855 L 180.34316119851 620.82747413855 L 180.34316119851 655.96347413855 L 166.23116119851 655.96347413855 L 166.23116119851 578.20347413855 Z M 227.09516119851 578.20347413855 L 259.73516119851 578.20347413855 L 259.73516119851 588.18747413855 L 241.20716119851 588.18747413855 L 241.20716119851 610.55547413855 L 255.79916119851 610.55547413855 L 255.79916119851 620.44347413855 L 241.20716119851 620.44347413855 L 241.20716119851 646.26747413855 L 259.92716119851 646.26747413855 L 259.92716119851 655.96347413855 L 227.09516119851 655.96347413855 L 227.09516119851 578.20347413855 Z M 273.36716119851 578.20347413855 L 287.38316119851 578.20347413855 L 287.38316119851 655.96347413855 L 273.36716119851 655.96347413855 L 273.36716119851 578.20347413855 Z M 304.18316119851 578.20347413855 L 323.38316119851 578.20347413855 C 330.74316119851 578.20347413855 336.37516119851 579.70747413855 340.27916119851 582.71547413855 C 344.18316119851 585.72347413855 346.13516119851 590.87547413855 346.13516119851 598.17147413855 C 346.13516119851 602.90747413855 345.17516119851 606.60347413855 343.25516119851 609.25947413855 C 341.33516119851 611.91547413855 338.55116119851 613.53147413855 334.90316119851 614.10747413855 C 343.86316119851 615.83547413855 348.34316119851 622.23547413855 348.34316119851 633.30747413855 C 348.34316119851 640.79547413855 346.51916119851 646.44347413855 342.87116119851 650.25147413855 C 339.22316119851 654.05947413855 333.81516119851 655.96347413855 326.64716119851 655.96347413855 L 304.18316119851 655.96347413855 L 304.18316119851 578.20347413855 Z M 323.19116119851 609.97947413855 C 327.28716119851 609.97947413855 330.08716119851 609.06747413855 331.59116119851 607.24347413855 C 333.09516119851 605.41947413855 333.84716119851 602.45947413855 333.84716119851 598.36347413855 C 333.84716119851 594.39547413855 332.87116119851 591.69147413855 330.91916119851 590.25147413855 C 328.96716119851 588.81147413855 325.71916119851 588.09147413855 321.17516119851 588.09147413855 L 318.29516119851 588.09147413855 L 318.29516119851 609.97947413855 L 323.19116119851 609.97947413855 Z M 323.76716119851 645.97947413855 C 327.92716119851 645.97947413855 330.80716119851 644.98747413855 332.40716119851 643.00347413855 C 334.00716119851 641.01947413855 334.80716119851 637.75547413855 334.80716119851 633.21147413855 C 334.80716119851 628.53947413855 333.92716119851 625.13147413855 332.16716119851 622.98747413855 C 330.40716119851 620.84347413855 327.44716119851 619.77147413855 323.28716119851 619.77147413855 L 318.29516119851 619.77147413855 L 318.29516119851 645.97947413855 L 323.76716119851 645.97947413855 Z M 362.45516119851 578.20347413855 L 395.09516119851 578.20347413855 L 395.09516119851 588.18747413855 L 376.56716119851 588.18747413855 L 376.56716119851 610.55547413855 L 391.15916119851 610.55547413855 L 391.15916119851 620.44347413855 L 376.56716119851 620.44347413855 L 376.56716119851 646.26747413855 L 395.28716119851 646.26747413855 L 395.28716119851 655.96347413855 L 362.45516119851 655.96347413855 L 362.45516119851 578.20347413855 Z M 408.34316119851 578.20347413855 L 427.06316119851 578.20347413855 C 435.25516119851 578.20347413855 441.36716119851 579.75547413855 445.39916119851 582.85947413855 C 449.43116119851 585.96347413855 451.44716119851 591.29147413855 451.44716119851 598.84347413855 C 451.44716119851 603.77147413855 450.72716119851 607.78747413855 449.28716119851 610.89147413855 C 447.84716119851 613.99547413855 445.36716119851 616.25147413855 441.84716119851 617.65947413855 L 452.69516119851 655.96347413855 L 438.48716119851 655.96347413855 L 429.17516119851 620.34747413855 L 422.45516119851 620.34747413855 L 422.45516119851 655.96347413855 L 408.34316119851 655.96347413855 L 408.34316119851 578.20347413855 Z M 426.96716119851 611.51547413855 C 430.99916119851 611.51547413855 433.86316119851 610.58747413855 435.55916119851 608.73147413855 C 437.25516119851 606.87547413855 438.10316119851 603.83547413855 438.10316119851 599.61147413855 C 438.10316119851 595.51547413855 437.35116119851 592.53947413855 435.84716119851 590.68347413855 C 434.34316119851 588.82747413855 431.63916119851 587.89947413855 427.73516119851 587.89947413855 L 422.45516119851 587.89947413855 L 422.45516119851 611.51547413855 L 426.96716119851 611.51547413855 Z M 470.21516119851 650.15547413855 C 466.98316119851 645.57947413855 465.36716119851 638.97147413855 465.36716119851 630.33147413855 L 465.36716119851 604.21947413855 C 465.36716119851 595.32347413855 467.03116119851 588.61947413855 470.35916119851 584.10747413855 C 473.68716119851 579.59547413855 479.41516119851 577.33947413855 487.54316119851 577.33947413855 C 495.22316119851 577.33947413855 500.72716119851 579.24347413855 504.05516119851 583.05147413855 C 507.38316119851 586.85947413855 509.04716119851 592.50747413855 509.04716119851 599.99547413855 L 509.04716119851 604.02747413855 L 495.51116119851 604.02747413855 L 495.51116119851 599.61147413855 C 495.51116119851 596.79547413855 495.33516119851 594.55547413855 494.98316119851 592.89147413855 C 494.63116119851 591.22747413855 493.89516119851 589.94747413855 492.77516119851 589.05147413855 C 491.65516119851 588.15547413855 489.97516119851 587.70747413855 487.73516119851 587.70747413855 C 485.36716119851 587.70747413855 483.60716119851 588.28347413855 482.45516119851 589.43547413855 C 481.30316119851 590.58747413855 480.55116119851 592.05947413855 480.19916119851 593.85147413855 C 479.84716119851 595.64347413855 479.67116119851 597.97947413855 479.67116119851 600.85947413855 L 479.67116119851 633.40347413855 C 479.67116119851 637.81947413855 480.26316119851 641.11547413855 481.44716119851 643.29147413855 C 482.63116119851 645.46747413855 484.85516119851 646.55547413855 488.11916119851 646.55547413855 C 491.31916119851 646.55547413855 493.54316119851 645.40347413855 494.79116119851 643.09947413855 C 496.03916119851 640.79547413855 496.66316119851 637.33947413855 496.66316119851 632.73147413855 L 496.66316119851 625.43547413855 L 488.31116119851 625.43547413855 L 488.31116119851 616.50747413855 L 509.43116119851 616.50747413855 L 509.43116119851 655.96347413855 L 500.21516119851 655.96347413855 L 499.25516119851 648.37947413855 C 496.82316119851 654.13947413855 492.43916119851 657.01947413855 486.10316119851 657.01947413855 C 478.74316119851 657.01947413855 473.44716119851 654.73147413855 470.21516119851 650.15547413855 Z M 556.99916119851 651.06747413855 C 553.51116119851 647.09947413855 551.60716119851 641.17947413855 551.28716119851 633.30747413855 L 563.47916119851 630.90747413855 C 563.67116119851 635.83547413855 564.45516119851 639.59547413855 565.83116119851 642.18747413855 C 567.20716119851 644.77947413855 569.36716119851 646.07547413855 572.31116119851 646.07547413855 C 574.48716119851 646.07547413855 576.10316119851 645.41947413855 577.15916119851 644.10747413855 C 578.21516119851 642.79547413855 578.74316119851 641.01947413855 578.74316119851 638.77947413855 C 578.74316119851 635.70747413855 578.05516119851 633.09947413855 576.67916119851 630.95547413855 C 575.30316119851 628.81147413855 573.14316119851 626.45947413855 570.19916119851 623.89947413855 L 560.40716119851 615.35547413855 C 557.39916119851 612.79547413855 555.14316119851 610.04347413855 553.63916119851 607.09947413855 C 552.13516119851 604.15547413855 551.38316119851 600.63547413855 551.38316119851 596.53947413855 C 551.38316119851 590.45947413855 553.15916119851 585.73947413855 556.71116119851 582.37947413855 C 560.26316119851 579.01947413855 565.17516119851 577.33947413855 571.44716119851 577.33947413855 C 578.16716119851 577.33947413855 582.98316119851 579.24347413855 585.89516119851 583.05147413855 C 588.80716119851 586.85947413855 590.48716119851 591.99547413855 590.93516119851 598.45947413855 L 578.74316119851 600.57147413855 C 578.55116119851 596.34747413855 577.95916119851 593.16347413855 576.96716119851 591.01947413855 C 575.97516119851 588.87547413855 574.03916119851 587.80347413855 571.15916119851 587.80347413855 C 569.11116119851 587.80347413855 567.51116119851 588.49147413855 566.35916119851 589.86747413855 C 565.20716119851 591.24347413855 564.63116119851 592.98747413855 564.63116119851 595.09947413855 C 564.63116119851 597.59547413855 565.12716119851 599.69147413855 566.11916119851 601.38747413855 C 567.11116119851 603.08347413855 568.72716119851 604.89147413855 570.96716119851 606.81147413855 L 580.66316119851 615.35547413855 C 584.31116119851 618.49147413855 587.15916119851 621.85147413855 589.20716119851 625.43547413855 C 591.25516119851 629.01947413855 592.27916119851 633.17947413855 592.27916119851 637.91547413855 C 592.27916119851 641.62747413855 591.46316119851 644.92347413855 589.83116119851 647.80347413855 C 588.19916119851 650.68347413855 585.91116119851 652.93947413855 582.96716119851 654.57147413855 C 580.02316119851 656.20347413855 576.63116119851 657.01947413855 572.79116119851 657.01947413855 C 565.75116119851 657.01947413855 560.48716119851 655.03547413855 556.99916119851 651.06747413855 Z M 615.89516119851 626.29947413855 L 600.15116119851 578.20347413855 L 613.39916119851 578.20347413855 L 622.99916119851 609.01947413855 L 632.02316119851 578.20347413855 L 644.98316119851 578.20347413855 L 629.43116119851 626.29947413855 L 629.43116119851 655.96347413855 L 615.89516119851 655.96347413855 L 615.89516119851 626.29947413855 Z M 660.00716119851 651.06747413855 C 656.51916119851 647.09947413855 654.61516119851 641.17947413855 654.29516119851 633.30747413855 L 666.48716119851 630.90747413855 C 666.67916119851 635.83547413855 667.46316119851 639.59547413855 668.83916119851 642.18747413855 C 670.21516119851 644.77947413855 672.37516119851 646.07547413855 675.31916119851 646.07547413855 C 677.49516119851 646.07547413855 679.11116119851 645.41947413855 680.16716119851 644.10747413855 C 681.22316119851 642.79547413855 681.75116119851 641.01947413855 681.75116119851 638.77947413855 C 681.75116119851 635.70747413855 681.06316119851 633.09947413855 679.68716119851 630.95547413855 C 678.31116119851 628.81147413855 676.15116119851 626.45947413855 673.20716119851 623.89947413855 L 663.41516119851 615.35547413855 C 660.40716119851 612.79547413855 658.15116119851 610.04347413855 656.64716119851 607.09947413855 C 655.14316119851 604.15547413855 654.39116119851 600.63547413855 654.39116119851 596.53947413855 C 654.39116119851 590.45947413855 656.16716119851 585.73947413855 659.71916119851 582.37947413855 C 663.27116119851 579.01947413855 668.18316119851 577.33947413855 674.45516119851 577.33947413855 C 681.17516119851 577.33947413855 685.99116119851 579.24347413855 688.90316119851 583.05147413855 C 691.81516119851 586.85947413855 693.49516119851 591.99547413855 693.94316119851 598.45947413855 L 681.75116119851 600.57147413855 C 681.55916119851 596.34747413855 680.96716119851 593.16347413855 679.97516119851 591.01947413855 C 678.98316119851 588.87547413855 677.04716119851 587.80347413855 674.16716119851 587.80347413855 C 672.11916119851 587.80347413855 670.51916119851 588.49147413855 669.36716119851 589.86747413855 C 668.21516119851 591.24347413855 667.63916119851 592.98747413855 667.63916119851 595.09947413855 C 667.63916119851 597.59547413855 668.13516119851 599.69147413855 669.12716119851 601.38747413855 C 670.11916119851 603.08347413855 671.73516119851 604.89147413855 673.97516119851 606.81147413855 L 683.67116119851 615.35547413855 C 687.31916119851 618.49147413855 690.16716119851 621.85147413855 692.21516119851 625.43547413855 C 694.26316119851 629.01947413855 695.28716119851 633.17947413855 695.28716119851 637.91547413855 C 695.28716119851 641.62747413855 694.47116119851 644.92347413855 692.83916119851 647.80347413855 C 691.20716119851 650.68347413855 688.91916119851 652.93947413855 685.97516119851 654.57147413855 C 683.03116119851 656.20347413855 679.63916119851 657.01947413855 675.79916119851 657.01947413855 C 668.75916119851 657.01947413855 663.49516119851 655.03547413855 660.00716119851 651.06747413855 Z M 716.21516119851 588.66747413855 L 703.83116119851 588.66747413855 L 703.83116119851 578.20347413855 L 742.51916119851 578.20347413855 L 742.51916119851 588.66747413855 L 730.42316119851 588.66747413855 L 730.42316119851 655.96347413855 L 716.21516119851 655.96347413855 L 716.21516119851 588.66747413855 Z M 754.42316119851 578.20347413855 L 787.06316119851 578.20347413855 L 787.06316119851 588.18747413855 L 768.53516119851 588.18747413855 L 768.53516119851 610.55547413855 L 783.12716119851 610.55547413855 L 783.12716119851 620.44347413855 L 768.53516119851 620.44347413855 L 768.53516119851 646.26747413855 L 787.25516119851 646.26747413855 L 787.25516119851 655.96347413855 L 754.42316119851 655.96347413855 L 754.42316119851 578.20347413855 Z M 801.46316119851 578.20347413855 L 816.15116119851 578.20347413855 L 827.19116119851 632.05947413855 L 838.61516119851 578.20347413855 L 852.91916119851 578.20347413855 L 854.35916119851 655.96347413855 L 843.79916119851 655.96347413855 L 842.64716119851 601.91547413855 L 831.60716119851 655.96347413855 L 823.06316119851 655.96347413855 L 811.83116119851 601.72347413855 L 810.77516119851 655.96347413855 L 800.11916119851 655.96347413855 L 801.46316119851 578.20347413855 Z M 873.89516119851 651.06747413855 C 870.40716119851 647.09947413855 868.50316119851 641.17947413855 868.18316119851 633.30747413855 L 880.37516119851 630.90747413855 C 880.56716119851 635.83547413855 881.35116119851 639.59547413855 882.72716119851 642.18747413855 C 884.10316119851 644.77947413855 886.26316119851 646.07547413855 889.20716119851 646.07547413855 C 891.38316119851 646.07547413855 892.99916119851 645.41947413855 894.05516119851 644.10747413855 C 895.11116119851 642.79547413855 895.63916119851 641.01947413855 895.63916119851 638.77947413855 C 895.63916119851 635.70747413855 894.95116119851 633.09947413855 893.57516119851 630.95547413855 C 892.19916119851 628.81147413855 890.03916119851 626.45947413855 887.09516119851 623.89947413855 L 877.30316119851 615.35547413855 C 874.29516119851 612.79547413855 872.03916119851 610.04347413855 870.53516119851 607.09947413855 C 869.03116119851 604.15547413855 868.27916119851 600.63547413855 868.27916119851 596.53947413855 C 868.27916119851 590.45947413855 870.05516119851 585.73947413855 873.60716119851 582.37947413855 C 877.15916119851 579.01947413855 882.07116119851 577.33947413855 888.34316119851 577.33947413855 C 895.06316119851 577.33947413855 899.87916119851 579.24347413855 902.79116119851 583.05147413855 C 905.70316119851 586.85947413855 907.38316119851 591.99547413855 907.83116119851 598.45947413855 L 895.63916119851 600.57147413855 C 895.44716119851 596.34747413855 894.85516119851 593.16347413855 893.86316119851 591.01947413855 C 892.87116119851 588.87547413855 890.93516119851 587.80347413855 888.05516119851 587.80347413855 C 886.00716119851 587.80347413855 884.40716119851 588.49147413855 883.25516119851 589.86747413855 C 882.10316119851 591.24347413855 881.52716119851 592.98747413855 881.52716119851 595.09947413855 C 881.52716119851 597.59547413855 882.02316119851 599.69147413855 883.01516119851 601.38747413855 C 884.00716119851 603.08347413855 885.62316119851 604.89147413855 887.86316119851 606.81147413855 L 897.55916119851 615.35547413855 C 901.20716119851 618.49147413855 904.05516119851 621.85147413855 906.10316119851 625.43547413855 C 908.15116119851 629.01947413855 909.17516119851 633.17947413855 909.17516119851 637.91547413855 C 909.17516119851 641.62747413855 908.35916119851 644.92347413855 906.72716119851 647.80347413855 C 905.09516119851 650.68347413855 902.80716119851 652.93947413855 899.86316119851 654.57147413855 C 896.91916119851 656.20347413855 893.52716119851 657.01947413855 889.68716119851 657.01947413855 C 882.64716119851 657.01947413855 877.38316119851 655.03547413855 873.89516119851 651.06747413855 Z"/><path id="text" fill="#ffffff" transform="matrix(0.3430447968990993 0 0 0.3430447968990993 228.1344563910338 107.801361030889)" d="M 372.01432239703 1308.32694827711 C 367.47032239703 1311.36694827711 362.22232239703 1312.88694827711 356.27032239703 1312.88694827711 C 350.31832239703 1312.88694827711 345.13432239703 1311.55894827711 340.71832239703 1308.90294827711 C 336.30232239703 1306.24694827711 332.89432239703 1302.47094827711 330.49432239703 1297.57494827711 C 328.09432239703 1292.67894827711 326.89432239703 1286.90294827711 326.89432239703 1280.24694827711 C 326.89432239703 1273.65494827711 328.09432239703 1267.89494827711 330.49432239703 1262.96694827711 C 332.89432239703 1258.03894827711 336.30232239703 1254.24694827711 340.71832239703 1251.59094827711 C 345.13432239703 1248.93494827711 350.25432239703 1247.60694827711 356.07832239703 1247.60694827711 C 362.15832239703 1247.60694827711 367.26232239703 1248.85494827711 371.39032239703 1251.35094827711 C 375.51832239703 1253.84694827711 378.60632239703 1257.52694827711 380.65432239703 1262.39094827711 L 373.07032239703 1265.94294827711 C 371.66232239703 1262.23094827711 369.61432239703 1259.44694827711 366.92632239703 1257.59094827711 C 364.23832239703 1255.73494827711 360.81432239703 1254.80694827711 356.65432239703 1254.80694827711 C 352.30232239703 1254.80694827711 348.49432239703 1255.81494827711 345.23032239703 1257.83094827711 C 341.96632239703 1259.84694827711 339.43832239703 1262.77494827711 337.64632239703 1266.61494827711 C 335.85432239703 1270.45494827711 334.95832239703 1274.99894827711 334.95832239703 1280.24694827711 C 334.95832239703 1288.18294827711 336.86232239703 1294.40694827711 340.67032239703 1298.91894827711 C 344.47832239703 1303.43094827711 349.67832239703 1305.68694827711 356.27032239703 1305.68694827711 C 360.55832239703 1305.68694827711 364.27032239703 1304.59894827711 367.40632239703 1302.42294827711 C 370.54232239703 1300.24694827711 372.78232239703 1297.04694827711 374.12632239703 1292.82294827711 L 381.80632239703 1295.70294827711 C 379.82232239703 1301.07894827711 376.55832239703 1305.28694827711 372.01432239703 1308.32694827711 Z M 432.44632239703 1269.59094827711 C 436.57432239703 1274.00694827711 438.63832239703 1280.11894827711 438.63832239703 1287.92694827711 C 438.63832239703 1295.73494827711 436.57432239703 1301.84694827711 432.44632239703 1306.26294827711 C 428.31832239703 1310.67894827711 422.63832239703 1312.88694827711 415.40632239703 1312.88694827711 C 408.17432239703 1312.88694827711 402.49432239703 1310.67894827711 398.36632239703 1306.26294827711 C 394.23832239703 1301.84694827711 392.17432239703 1295.73494827711 392.17432239703 1287.92694827711 C 392.17432239703 1280.11894827711 394.23832239703 1274.00694827711 398.36632239703 1269.59094827711 C 402.49432239703 1265.17494827711 408.17432239703 1262.96694827711 415.40632239703 1262.96694827711 C 422.63832239703 1262.96694827711 428.31832239703 1265.17494827711 432.44632239703 1269.59094827711 Z M 403.98232239703 1274.48694827711 C 401.23032239703 1277.75094827711 399.85432239703 1282.23094827711 399.85432239703 1287.92694827711 C 399.85432239703 1293.62294827711 401.23032239703 1298.10294827711 403.98232239703 1301.36694827711 C 406.73432239703 1304.63094827711 410.54232239703 1306.26294827711 415.40632239703 1306.26294827711 C 420.27032239703 1306.26294827711 424.07832239703 1304.63094827711 426.83032239703 1301.36694827711 C 429.58232239703 1298.10294827711 430.95832239703 1293.62294827711 430.95832239703 1287.92694827711 C 430.95832239703 1282.23094827711 429.58232239703 1277.75094827711 426.83032239703 1274.48694827711 C 424.07832239703 1271.22294827711 420.27032239703 1269.59094827711 415.40632239703 1269.59094827711 C 410.54232239703 1269.59094827711 406.73432239703 1271.22294827711 403.98232239703 1274.48694827711 Z M 518.27032239703 1264.93494827711 C 521.05432239703 1266.24694827711 523.31032239703 1268.27894827711 525.03832239703 1271.03094827711 C 526.76632239703 1273.78294827711 527.63032239703 1277.17494827711 527.63032239703 1281.20694827711 L 527.63032239703 1311.92694827711 L 519.95032239703 1311.92694827711 L 519.95032239703 1281.97494827711 C 519.95032239703 1277.81494827711 518.91032239703 1274.72694827711 516.83032239703 1272.71094827711 C 514.75032239703 1270.69494827711 512.01432239703 1269.68694827711 508.62232239703 1269.68694827711 C 506.06232239703 1269.68694827711 503.71032239703 1270.31094827711 501.56632239703 1271.55894827711 C 499.42232239703 1272.80694827711 497.69432239703 1274.63094827711 496.38232239703 1277.03094827711 C 495.07032239703 1279.43094827711 494.41432239703 1282.29494827711 494.41432239703 1285.62294827711 L 494.41432239703 1311.92694827711 L 486.73432239703 1311.92694827711 L 486.73432239703 1281.97494827711 C 486.73432239703 1277.81494827711 485.69432239703 1274.72694827711 483.61432239703 1272.71094827711 C 481.53432239703 1270.69494827711 478.79832239703 1269.68694827711 475.40632239703 1269.68694827711 C 473.10232239703 1269.68694827711 470.86232239703 1270.27894827711 468.68632239703 1271.46294827711 C 466.51032239703 1272.64694827711 464.71832239703 1274.48694827711 463.31032239703 1276.98294827711 C 461.90232239703 1279.47894827711 461.19832239703 1282.58294827711 461.19832239703 1286.29494827711 L 461.19832239703 1311.92694827711 L 453.51832239703 1311.92694827711 L 453.51832239703 1263.92694827711 L 460.23832239703 1263.92694827711 L 460.71832239703 1271.41494827711 C 462.38232239703 1268.59894827711 464.57432239703 1266.48694827711 467.29432239703 1265.07894827711 C 470.01432239703 1263.67094827711 472.94232239703 1262.96694827711 476.07832239703 1262.96694827711 C 479.59832239703 1262.96694827711 482.84632239703 1263.76694827711 485.82232239703 1265.36694827711 C 488.79832239703 1266.96694827711 491.05432239703 1269.30294827711 492.59032239703 1272.37494827711 C 493.99832239703 1269.30294827711 496.30232239703 1266.96694827711 499.50232239703 1265.36694827711 C 502.70232239703 1263.76694827711 505.96632239703 1262.96694827711 509.29432239703 1262.96694827711 C 512.49432239703 1262.96694827711 515.48632239703 1263.62294827711 518.27032239703 1264.93494827711 Z M 584.60632239703 1269.63894827711 C 588.54232239703 1274.08694827711 590.51032239703 1280.18294827711 590.51032239703 1287.92694827711 C 590.51032239703 1295.67094827711 588.54232239703 1301.76694827711 584.60632239703 1306.21494827711 C 580.67032239703 1310.66294827711 575.34232239703 1312.88694827711 568.62232239703 1312.88694827711 C 565.10232239703 1312.88694827711 561.95032239703 1312.11894827711 559.16632239703 1310.58294827711 C 556.38232239703 1309.04694827711 554.22232239703 1306.99894827711 552.68632239703 1304.43894827711 L 552.68632239703 1332.08694827711 L 545.00632239703 1332.08694827711 L 545.00632239703 1263.92694827711 L 551.72632239703 1263.92694827711 L 552.20632239703 1272.27894827711 C 553.61432239703 1269.46294827711 555.77432239703 1267.20694827711 558.68632239703 1265.51094827711 C 561.59832239703 1263.81494827711 564.91032239703 1262.96694827711 568.62232239703 1262.96694827711 C 575.34232239703 1262.96694827711 580.67032239703 1265.19094827711 584.60632239703 1269.63894827711 Z M 578.79832239703 1301.22294827711 C 581.48632239703 1297.92694827711 582.83032239703 1293.49494827711 582.83032239703 1287.92694827711 C 582.83032239703 1282.35894827711 581.48632239703 1277.92694827711 578.79832239703 1274.63094827711 C 576.11032239703 1271.33494827711 572.43032239703 1269.68694827711 567.75832239703 1269.68694827711 C 563.15032239703 1269.68694827711 559.48632239703 1271.28694827711 556.76632239703 1274.48694827711 C 554.04632239703 1277.68694827711 552.68632239703 1281.97494827711 552.68632239703 1287.35094827711 L 552.68632239703 1288.50294827711 C 552.68632239703 1293.87894827711 554.04632239703 1298.16694827711 556.76632239703 1301.36694827711 C 559.48632239703 1304.56694827711 563.15032239703 1306.16694827711 567.75832239703 1306.16694827711 C 572.43032239703 1306.16694827711 576.11032239703 1304.51894827711 578.79832239703 1301.22294827711 Z M 612.78232239703 1299.06294827711 C 612.78232239703 1301.49494827711 613.15032239703 1303.17494827711 613.88632239703 1304.10294827711 C 614.62232239703 1305.03094827711 615.98232239703 1305.49494827711 617.96632239703 1305.49494827711 C 619.31032239703 1305.49494827711 620.47832239703 1305.39894827711 621.47032239703 1305.20694827711 C 622.46232239703 1305.01494827711 623.63032239703 1304.66294827711 624.97432239703 1304.15094827711 L 623.72632239703 1311.54294827711 C 621.61432239703 1312.43894827711 619.24632239703 1312.88694827711 616.62232239703 1312.88694827711 C 612.71832239703 1312.88694827711 609.82232239703 1311.83094827711 607.93432239703 1309.71894827711 C 606.04632239703 1307.60694827711 605.10232239703 1304.37494827711 605.10232239703 1300.02294827711 L 605.10232239703 1241.84694827711 L 612.78232239703 1241.84694827711 L 612.78232239703 1299.06294827711 Z M 675.66232239703 1290.80694827711 L 639.47032239703 1290.80694827711 C 639.91832239703 1295.67094827711 641.53432239703 1299.44694827711 644.31832239703 1302.13494827711 C 647.10232239703 1304.82294827711 650.70232239703 1306.16694827711 655.11832239703 1306.16694827711 C 658.63832239703 1306.16694827711 661.56632239703 1305.55894827711 663.90232239703 1304.34294827711 C 666.23832239703 1303.12694827711 667.82232239703 1301.36694827711 668.65432239703 1299.06294827711 L 675.08632239703 1302.42294827711 C 673.16632239703 1305.81494827711 670.60632239703 1308.40694827711 667.40632239703 1310.19894827711 C 664.20632239703 1311.99094827711 660.11032239703 1312.88694827711 655.11832239703 1312.88694827711 C 647.88632239703 1312.88694827711 642.20632239703 1310.67894827711 638.07832239703 1306.26294827711 C 633.95032239703 1301.84694827711 631.88632239703 1295.73494827711 631.88632239703 1287.92694827711 C 631.88632239703 1280.11894827711 633.85432239703 1274.00694827711 637.79032239703 1269.59094827711 C 641.72632239703 1265.17494827711 647.31032239703 1262.96694827711 654.54232239703 1262.96694827711 C 659.02232239703 1262.96694827711 662.89432239703 1263.95894827711 666.15832239703 1265.94294827711 C 669.42232239703 1267.92694827711 671.88632239703 1270.61494827711 673.55032239703 1274.00694827711 C 675.21432239703 1277.39894827711 676.04632239703 1281.20694827711 676.04632239703 1285.43094827711 C 676.04632239703 1287.22294827711 675.91832239703 1289.01494827711 675.66232239703 1290.80694827711 Z M 644.31832239703 1273.43094827711 C 641.72632239703 1275.92694827711 640.14232239703 1279.44694827711 639.56632239703 1283.99094827711 L 668.65432239703 1283.99094827711 C 668.14232239703 1279.51094827711 666.67032239703 1276.00694827711 664.23832239703 1273.47894827711 C 661.80632239703 1270.95094827711 658.57432239703 1269.68694827711 654.54232239703 1269.68694827711 C 650.31832239703 1269.68694827711 646.91032239703 1270.93494827711 644.31832239703 1273.43094827711 Z M 718.57432239703 1308.56694827711 C 715.37432239703 1311.44694827711 711.24632239703 1312.88694827711 706.19032239703 1312.88694827711 C 702.28632239703 1312.88694827711 699.10232239703 1311.83094827711 696.63832239703 1309.71894827711 C 694.17432239703 1307.60694827711 692.91032239703 1304.37494827711 692.84632239703 1300.02294827711 L 692.84632239703 1270.55094827711 L 683.24632239703 1270.55094827711 L 683.24632239703 1263.92694827711 L 692.84632239703 1263.92694827711 L 692.84632239703 1252.40694827711 L 700.52632239703 1250.29494827711 L 700.52632239703 1263.92694827711 L 718.28632239703 1263.92694827711 L 718.28632239703 1270.55094827711 L 700.52632239703 1270.55094827711 L 700.52632239703 1298.67894827711 C 700.52632239703 1300.98294827711 701.18232239703 1302.72694827711 702.49432239703 1303.91094827711 C 703.80632239703 1305.09494827711 705.55032239703 1305.68694827711 707.72632239703 1305.68694827711 C 710.79832239703 1305.68694827711 713.51832239703 1304.50294827711 715.88632239703 1302.13494827711 L 718.57432239703 1308.56694827711 Z M 770.22232239703 1290.80694827711 L 734.03032239703 1290.80694827711 C 734.47832239703 1295.67094827711 736.09432239703 1299.44694827711 738.87832239703 1302.13494827711 C 741.66232239703 1304.82294827711 745.26232239703 1306.16694827711 749.67832239703 1306.16694827711 C 753.19832239703 1306.16694827711 756.12632239703 1305.55894827711 758.46232239703 1304.34294827711 C 760.79832239703 1303.12694827711 762.38232239703 1301.36694827711 763.21432239703 1299.06294827711 L 769.64632239703 1302.42294827711 C 767.72632239703 1305.81494827711 765.16632239703 1308.40694827711 761.96632239703 1310.19894827711 C 758.76632239703 1311.99094827711 754.67032239703 1312.88694827711 749.67832239703 1312.88694827711 C 742.44632239703 1312.88694827711 736.76632239703 1310.67894827711 732.63832239703 1306.26294827711 C 728.51032239703 1301.84694827711 726.44632239703 1295.73494827711 726.44632239703 1287.92694827711 C 726.44632239703 1280.11894827711 728.41432239703 1274.00694827711 732.35032239703 1269.59094827711 C 736.28632239703 1265.17494827711 741.87032239703 1262.96694827711 749.10232239703 1262.96694827711 C 753.58232239703 1262.96694827711 757.45432239703 1263.95894827711 760.71832239703 1265.94294827711 C 763.98232239703 1267.92694827711 766.44632239703 1270.61494827711 768.11032239703 1274.00694827711 C 769.77432239703 1277.39894827711 770.60632239703 1281.20694827711 770.60632239703 1285.43094827711 C 770.60632239703 1287.22294827711 770.47832239703 1289.01494827711 770.22232239703 1290.80694827711 Z M 738.87832239703 1273.43094827711 C 736.28632239703 1275.92694827711 734.70232239703 1279.44694827711 734.12632239703 1283.99094827711 L 763.21432239703 1283.99094827711 C 762.70232239703 1279.51094827711 761.23032239703 1276.00694827711 758.79832239703 1273.47894827711 C 756.36632239703 1270.95094827711 753.13432239703 1269.68694827711 749.10232239703 1269.68694827711 C 744.87832239703 1269.68694827711 741.47032239703 1270.93494827711 738.87832239703 1273.43094827711 Z M 863.24632239703 1256.82294827711 C 868.87832239703 1262.32694827711 871.69432239703 1270.13494827711 871.69432239703 1280.24694827711 C 871.69432239703 1290.35894827711 868.87832239703 1298.16694827711 863.24632239703 1303.67094827711 C 857.61432239703 1309.17494827711 849.80632239703 1311.92694827711 839.82232239703 1311.92694827711 L 819.37432239703 1311.92694827711 L 819.37432239703 1248.56694827711 L 839.82232239703 1248.56694827711 C 849.80632239703 1248.56694827711 857.61432239703 1251.31894827711 863.24632239703 1256.82294827711 Z M 857.53432239703 1298.24694827711 C 861.59832239703 1293.92694827711 863.63032239703 1287.92694827711 863.63032239703 1280.24694827711 C 863.63032239703 1272.56694827711 861.59832239703 1266.56694827711 857.53432239703 1262.24694827711 C 853.47032239703 1257.92694827711 847.82232239703 1255.76694827711 840.59032239703 1255.76694827711 L 827.05432239703 1255.76694827711 L 827.05432239703 1304.72694827711 L 840.59032239703 1304.72694827711 C 847.82232239703 1304.72694827711 853.47032239703 1302.56694827711 857.53432239703 1298.24694827711 Z M 927.95032239703 1290.80694827711 L 891.75832239703 1290.80694827711 C 892.20632239703 1295.67094827711 893.82232239703 1299.44694827711 896.60632239703 1302.13494827711 C 899.39032239703 1304.82294827711 902.99032239703 1306.16694827711 907.40632239703 1306.16694827711 C 910.92632239703 1306.16694827711 913.85432239703 1305.55894827711 916.19032239703 1304.34294827711 C 918.52632239703 1303.12694827711 920.11032239703 1301.36694827711 920.94232239703 1299.06294827711 L 927.37432239703 1302.42294827711 C 925.45432239703 1305.81494827711 922.89432239703 1308.40694827711 919.69432239703 1310.19894827711 C 916.49432239703 1311.99094827711 912.39832239703 1312.88694827711 907.40632239703 1312.88694827711 C 900.17432239703 1312.88694827711 894.49432239703 1310.67894827711 890.36632239703 1306.26294827711 C 886.23832239703 1301.84694827711 884.17432239703 1295.73494827711 884.17432239703 1287.92694827711 C 884.17432239703 1280.11894827711 886.14232239703 1274.00694827711 890.07832239703 1269.59094827711 C 894.01432239703 1265.17494827711 899.59832239703 1262.96694827711 906.83032239703 1262.96694827711 C 911.31032239703 1262.96694827711 915.18232239703 1263.95894827711 918.44632239703 1265.94294827711 C 921.71032239703 1267.92694827711 924.17432239703 1270.61494827711 925.83832239703 1274.00694827711 C 927.50232239703 1277.39894827711 928.33432239703 1281.20694827711 928.33432239703 1285.43094827711 C 928.33432239703 1287.22294827711 928.20632239703 1289.01494827711 927.95032239703 1290.80694827711 Z M 896.60632239703 1273.43094827711 C 894.01432239703 1275.92694827711 892.43032239703 1279.44694827711 891.85432239703 1283.99094827711 L 920.94232239703 1283.99094827711 C 920.43032239703 1279.51094827711 918.95832239703 1276.00694827711 916.52632239703 1273.47894827711 C 914.09432239703 1270.95094827711 910.86232239703 1269.68694827711 906.83032239703 1269.68694827711 C 902.60632239703 1269.68694827711 899.19832239703 1270.93494827711 896.60632239703 1273.43094827711 Z M 981.42232239703 1263.92694827711 L 961.45432239703 1311.92694827711 L 953.77432239703 1311.92694827711 L 933.80632239703 1263.92694827711 L 942.54232239703 1263.92694827711 L 957.71032239703 1304.15094827711 L 973.35832239703 1263.92694827711 L 981.42232239703 1263.92694827711 Z M 1037.77432239703 1261.04694827711 L 1031.15032239703 1266.42294827711 C 1029.23032239703 1262.19894827711 1026.94232239703 1259.20694827711 1024.28632239703 1257.44694827711 C 1021.63032239703 1255.68694827711 1017.99832239703 1254.80694827711 1013.39032239703 1254.80694827711 C 1008.52632239703 1254.80694827711 1004.70232239703 1255.81494827711 1001.91832239703 1257.83094827711 C 999.13432239703 1259.84694827711 997.74232239703 1262.42294827711 997.74232239703 1265.55894827711 C 997.74232239703 1267.60694827711 998.28632239703 1269.30294827711 999.37432239703 1270.64694827711 C 1000.46232239703 1271.99094827711 1002.27032239703 1273.15894827711 1004.79832239703 1274.15094827711 C 1007.32632239703 1275.14294827711 1010.83032239703 1276.02294827711 1015.31032239703 1276.79094827711 C 1023.69432239703 1278.19894827711 1029.63032239703 1280.31094827711 1033.11832239703 1283.12694827711 C 1036.60632239703 1285.94294827711 1038.35032239703 1289.84694827711 1038.35032239703 1294.83894827711 C 1038.35032239703 1298.42294827711 1037.34232239703 1301.57494827711 1035.32632239703 1304.29494827711 C 1033.31032239703 1307.01494827711 1030.44632239703 1309.12694827711 1026.73432239703 1310.63094827711 C 1023.02232239703 1312.13494827711 1018.73432239703 1312.88694827711 1013.87032239703 1312.88694827711 C 1007.47032239703 1312.88694827711 1002.01432239703 1311.63894827711 997.50232239703 1309.14294827711 C 992.99032239703 1306.64694827711 989.55032239703 1303.31894827711 987.18232239703 1299.15894827711 L 993.80632239703 1293.78294827711 C 995.53432239703 1297.55894827711 998.07832239703 1300.48694827711 1001.43832239703 1302.56694827711 C 1004.79832239703 1304.64694827711 1009.00632239703 1305.68694827711 1014.06232239703 1305.68694827711 C 1019.05432239703 1305.68694827711 1023.02232239703 1304.77494827711 1025.96632239703 1302.95094827711 C 1028.91032239703 1301.12694827711 1030.38232239703 1298.55094827711 1030.38232239703 1295.22294827711 C 1030.38232239703 1292.40694827711 1029.10232239703 1290.16694827711 1026.54232239703 1288.50294827711 C 1023.98232239703 1286.83894827711 1019.43832239703 1285.43094827711 1012.91032239703 1284.27894827711 C 1004.46232239703 1282.80694827711 998.47832239703 1280.69494827711 994.95832239703 1277.94294827711 C 991.43832239703 1275.19094827711 989.67832239703 1271.35094827711 989.67832239703 1266.42294827711 C 989.67832239703 1263.03094827711 990.63832239703 1259.89494827711 992.55832239703 1257.01494827711 C 994.47832239703 1254.13494827711 997.23032239703 1251.84694827711 1000.81432239703 1250.15094827711 C 1004.39832239703 1248.45494827711 1008.55832239703 1247.60694827711 1013.29432239703 1247.60694827711 C 1024.62232239703 1247.60694827711 1032.78232239703 1252.08694827711 1037.77432239703 1261.04694827711 Z M 1093.83832239703 1290.80694827711 L 1057.64632239703 1290.80694827711 C 1058.09432239703 1295.67094827711 1059.71032239703 1299.44694827711 1062.49432239703 1302.13494827711 C 1065.27832239703 1304.82294827711 1068.87832239703 1306.16694827711 1073.29432239703 1306.16694827711 C 1076.81432239703 1306.16694827711 1079.74232239703 1305.55894827711 1082.07832239703 1304.34294827711 C 1084.41432239703 1303.12694827711 1085.99832239703 1301.36694827711 1086.83032239703 1299.06294827711 L 1093.26232239703 1302.42294827711 C 1091.34232239703 1305.81494827711 1088.78232239703 1308.40694827711 1085.58232239703 1310.19894827711 C 1082.38232239703 1311.99094827711 1078.28632239703 1312.88694827711 1073.29432239703 1312.88694827711 C 1066.06232239703 1312.88694827711 1060.38232239703 1310.67894827711 1056.25432239703 1306.26294827711 C 1052.12632239703 1301.84694827711 1050.06232239703 1295.73494827711 1050.06232239703 1287.92694827711 C 1050.06232239703 1280.11894827711 1052.03032239703 1274.00694827711 1055.96632239703 1269.59094827711 C 1059.90232239703 1265.17494827711 1065.48632239703 1262.96694827711 1072.71832239703 1262.96694827711 C 1077.19832239703 1262.96694827711 1081.07032239703 1263.95894827711 1084.33432239703 1265.94294827711 C 1087.59832239703 1267.92694827711 1090.06232239703 1270.61494827711 1091.72632239703 1274.00694827711 C 1093.39032239703 1277.39894827711 1094.22232239703 1281.20694827711 1094.22232239703 1285.43094827711 C 1094.22232239703 1287.22294827711 1094.09432239703 1289.01494827711 1093.83832239703 1290.80694827711 Z M 1062.49432239703 1273.43094827711 C 1059.90232239703 1275.92694827711 1058.31832239703 1279.44694827711 1057.74232239703 1283.99094827711 L 1086.83032239703 1283.99094827711 C 1086.31832239703 1279.51094827711 1084.84632239703 1276.00694827711 1082.41432239703 1273.47894827711 C 1079.98232239703 1270.95094827711 1076.75032239703 1269.68694827711 1072.71832239703 1269.68694827711 C 1068.49432239703 1269.68694827711 1065.08632239703 1270.93494827711 1062.49432239703 1273.43094827711 Z M 1141.21432239703 1266.27894827711 C 1144.51032239703 1268.48694827711 1147.08632239703 1271.63894827711 1148.94232239703 1275.73494827711 L 1141.64632239703 1279.19094827711 C 1139.59832239703 1272.85494827711 1135.34232239703 1269.68694827711 1128.87832239703 1269.68694827711 C 1124.07832239703 1269.68694827711 1120.31832239703 1271.30294827711 1117.59832239703 1274.53494827711 C 1114.87832239703 1277.76694827711 1113.51832239703 1282.23094827711 1113.51832239703 1287.92694827711 C 1113.51832239703 1293.62294827711 1114.87832239703 1298.08694827711 1117.59832239703 1301.31894827711 C 1120.31832239703 1304.55094827711 1124.07832239703 1306.16694827711 1128.87832239703 1306.16694827711 C 1132.59032239703 1306.16694827711 1135.58232239703 1305.31894827711 1137.85432239703 1303.62294827711 C 1140.12632239703 1301.92694827711 1141.61432239703 1299.47894827711 1142.31832239703 1296.27894827711 L 1149.42232239703 1298.77494827711 C 1147.75832239703 1303.25494827711 1145.19832239703 1306.72694827711 1141.74232239703 1309.19094827711 C 1138.28632239703 1311.65494827711 1134.06232239703 1312.88694827711 1129.07032239703 1312.88694827711 C 1121.83832239703 1312.88694827711 1116.15832239703 1310.67894827711 1112.03032239703 1306.26294827711 C 1107.90232239703 1301.84694827711 1105.83832239703 1295.73494827711 1105.83832239703 1287.92694827711 C 1105.83832239703 1280.11894827711 1107.90232239703 1274.00694827711 1112.03032239703 1269.59094827711 C 1116.15832239703 1265.17494827711 1121.83832239703 1262.96694827711 1129.07032239703 1262.96694827711 C 1133.87032239703 1262.96694827711 1137.91832239703 1264.07094827711 1141.21432239703 1266.27894827711 Z M 1204.91032239703 1251.59094827711 C 1209.32632239703 1254.24694827711 1212.73432239703 1258.02294827711 1215.13432239703 1262.91894827711 C 1217.53432239703 1267.81494827711 1218.73432239703 1273.59094827711 1218.73432239703 1280.24694827711 C 1218.73432239703 1286.90294827711 1217.53432239703 1292.67894827711 1215.13432239703 1297.57494827711 C 1212.73432239703 1302.47094827711 1209.32632239703 1306.24694827711 1204.91032239703 1308.90294827711 C 1200.49432239703 1311.55894827711 1195.31032239703 1312.88694827711 1189.35832239703 1312.88694827711 C 1183.40632239703 1312.88694827711 1178.22232239703 1311.55894827711 1173.80632239703 1308.90294827711 C 1169.39032239703 1306.24694827711 1165.98232239703 1302.47094827711 1163.58232239703 1297.57494827711 C 1161.18232239703 1292.67894827711 1159.98232239703 1286.90294827711 1159.98232239703 1280.24694827711 C 1159.98232239703 1273.59094827711 1161.18232239703 1267.81494827711 1163.58232239703 1262.91894827711 C 1165.98232239703 1258.02294827711 1169.39032239703 1254.24694827711 1173.80632239703 1251.59094827711 C 1178.22232239703 1248.93494827711 1183.40632239703 1247.60694827711 1189.35832239703 1247.60694827711 C 1195.31032239703 1247.60694827711 1200.49432239703 1248.93494827711 1204.91032239703 1251.59094827711 Z M 1173.75832239703 1261.57494827711 C 1169.95032239703 1266.08694827711 1168.04632239703 1272.31094827711 1168.04632239703 1280.24694827711 C 1168.04632239703 1288.18294827711 1169.95032239703 1294.40694827711 1173.75832239703 1298.91894827711 C 1177.56632239703 1303.43094827711 1182.76632239703 1305.68694827711 1189.35832239703 1305.68694827711 C 1195.95032239703 1305.68694827711 1201.15032239703 1303.43094827711 1204.95832239703 1298.91894827711 C 1208.76632239703 1294.40694827711 1210.67032239703 1288.18294827711 1210.67032239703 1280.24694827711 C 1210.67032239703 1272.31094827711 1208.76632239703 1266.08694827711 1204.95832239703 1261.57494827711 C 1201.15032239703 1257.06294827711 1195.95032239703 1254.80694827711 1189.35832239703 1254.80694827711 C 1182.76632239703 1254.80694827711 1177.56632239703 1257.06294827711 1173.75832239703 1261.57494827711 Z M 1273.31032239703 1269.63894827711 C 1277.24632239703 1274.08694827711 1279.21432239703 1280.18294827711 1279.21432239703 1287.92694827711 C 1279.21432239703 1295.67094827711 1277.24632239703 1301.76694827711 1273.31032239703 1306.21494827711 C 1269.37432239703 1310.66294827711 1264.04632239703 1312.88694827711 1257.32632239703 1312.88694827711 C 1253.80632239703 1312.88694827711 1250.65432239703 1312.11894827711 1247.87032239703 1310.58294827711 C 1245.08632239703 1309.04694827711 1242.92632239703 1306.99894827711 1241.39032239703 1304.43894827711 L 1241.39032239703 1332.08694827711 L 1233.71032239703 1332.08694827711 L 1233.71032239703 1263.92694827711 L 1240.43032239703 1263.92694827711 L 1240.91032239703 1272.27894827711 C 1242.31832239703 1269.46294827711 1244.47832239703 1267.20694827711 1247.39032239703 1265.51094827711 C 1250.30232239703 1263.81494827711 1253.61432239703 1262.96694827711 1257.32632239703 1262.96694827711 C 1264.04632239703 1262.96694827711 1269.37432239703 1265.19094827711 1273.31032239703 1269.63894827711 Z M 1267.50232239703 1301.22294827711 C 1270.19032239703 1297.92694827711 1271.53432239703 1293.49494827711 1271.53432239703 1287.92694827711 C 1271.53432239703 1282.35894827711 1270.19032239703 1277.92694827711 1267.50232239703 1274.63094827711 C 1264.81432239703 1271.33494827711 1261.13432239703 1269.68694827711 1256.46232239703 1269.68694827711 C 1251.85432239703 1269.68694827711 1248.19032239703 1271.28694827711 1245.47032239703 1274.48694827711 C 1242.75032239703 1277.68694827711 1241.39032239703 1281.97494827711 1241.39032239703 1287.35094827711 L 1241.39032239703 1288.50294827711 C 1241.39032239703 1293.87894827711 1242.75032239703 1298.16694827711 1245.47032239703 1301.36694827711 C 1248.19032239703 1304.56694827711 1251.85432239703 1306.16694827711 1256.46232239703 1306.16694827711 C 1261.13432239703 1306.16694827711 1264.81432239703 1304.51894827711 1267.50232239703 1301.22294827711 Z M 1298.03032239703 1310.15094827711 C 1294.31832239703 1308.32694827711 1291.59832239703 1305.62294827711 1289.87032239703 1302.03894827711 L 1296.11032239703 1297.71894827711 C 1297.19832239703 1300.53494827711 1299.08632239703 1302.64694827711 1301.77432239703 1304.05494827711 C 1304.46232239703 1305.46294827711 1307.63032239703 1306.16694827711 1311.27832239703 1306.16694827711 C 1315.05432239703 1306.16694827711 1317.93432239703 1305.49494827711 1319.91832239703 1304.15094827711 C 1321.90232239703 1302.80694827711 1322.89432239703 1301.11094827711 1322.89432239703 1299.06294827711 C 1322.89432239703 1297.20694827711 1321.96632239703 1295.71894827711 1320.11032239703 1294.59894827711 C 1318.25432239703 1293.47894827711 1314.99032239703 1292.50294827711 1310.31832239703 1291.67094827711 C 1305.71032239703 1290.83894827711 1302.06232239703 1289.83094827711 1299.37432239703 1288.64694827711 C 1296.68632239703 1287.46294827711 1294.73432239703 1285.95894827711 1293.51832239703 1284.13494827711 C 1292.30232239703 1282.31094827711 1291.69432239703 1280.05494827711 1291.69432239703 1277.36694827711 C 1291.69432239703 1274.74294827711 1292.46232239703 1272.34294827711 1293.99832239703 1270.16694827711 C 1295.53432239703 1267.99094827711 1297.74232239703 1266.24694827711 1300.62232239703 1264.93494827711 C 1303.50232239703 1263.62294827711 1306.83032239703 1262.96694827711 1310.60632239703 1262.96694827711 C 1315.72632239703 1262.96694827711 1319.83832239703 1263.91094827711 1322.94232239703 1265.79894827711 C 1326.04632239703 1267.68694827711 1328.27032239703 1270.58294827711 1329.61432239703 1274.48694827711 L 1323.08632239703 1278.32694827711 C 1322.06232239703 1275.25494827711 1320.51032239703 1273.04694827711 1318.43032239703 1271.70294827711 C 1316.35032239703 1270.35894827711 1313.74232239703 1269.68694827711 1310.60632239703 1269.68694827711 C 1307.47032239703 1269.68694827711 1304.81432239703 1270.39094827711 1302.63832239703 1271.79894827711 C 1300.46232239703 1273.20694827711 1299.37432239703 1274.83894827711 1299.37432239703 1276.69494827711 C 1299.37432239703 1278.80694827711 1300.31832239703 1280.43894827711 1302.20632239703 1281.59094827711 C 1304.09432239703 1282.74294827711 1307.47032239703 1283.73494827711 1312.33432239703 1284.56694827711 C 1318.99032239703 1285.65494827711 1323.69432239703 1287.28694827711 1326.44632239703 1289.46294827711 C 1329.19832239703 1291.63894827711 1330.57432239703 1294.71094827711 1330.57432239703 1298.67894827711 C 1330.57432239703 1301.43094827711 1329.75832239703 1303.87894827711 1328.12632239703 1306.02294827711 C 1326.49432239703 1308.16694827711 1324.15832239703 1309.84694827711 1321.11832239703 1311.06294827711 C 1318.07832239703 1312.27894827711 1314.54232239703 1312.88694827711 1310.51032239703 1312.88694827711 C 1305.90232239703 1312.88694827711 1301.74232239703 1311.97494827711 1298.03032239703 1310.15094827711 Z"/></svg>